<?xml version="1.0" encoding="UTF-8"?>
<svg id="Layer_1" xmlns="http://www.w3.org/2000/svg" version="1.1" xmlns:xlink="http://www.w3.org/1999/xlink" viewBox="0 0 524 215.6">
  <!-- Generator: Adobe Illustrator 29.4.0, SVG Export Plug-In . SVG Version: 2.1.0 Build 152)  -->
  <defs>
    <style>
      .st0, .st1, .st2, .st3, .st4, .st5 {
        stroke: #052942;
      }

      .st0, .st2, .st6, .st3, .st4, .st5 {
        fill: none;
      }

      .st0, .st3, .st5 {
        stroke-linejoin: round;
      }

      .st0, .st4, .st5 {
        stroke-width: 4px;
      }

      .st1 {
        fill: #f1f1f1;
      }

      .st1, .st2 {
        stroke-width: 3px;
      }

      .st1, .st2, .st4, .st7 {
        stroke-miterlimit: 10;
      }

      .st8 {
        fill: #fff;
      }

      .st9 {
        fill: #60aad3;
      }

      .st3 {
        stroke-width: 2px;
      }

      .st10 {
        fill: #052942;
      }

      .st5 {
        stroke-linecap: round;
      }

      .st11, .st7 {
        fill: #63acd7;
      }

      .st7 {
        stroke: #629daf;
        stroke-width: .8px;
      }

      .st12 {
        clip-path: url(#clippath);
      }
    </style>
    <clipPath id="clippath">
      <path class="st6" d="M153.9,130.1c1.6,36.5-31.2,66.3-66.2,65.4-39.1-.9-69.3-29.3-67.2-67.2,1.9-33.1,36.7-76.1,67.2-119.9,52.1,79.9,63.3,91,66.2,121.7Z"/>
    </clipPath>
  </defs>
  <path class="st1" d="M154.6,130.4c1.6,36.9-31.5,66.9-66.9,66.1s-70-29.6-67.9-67.9c1.9-33.4,37-76.9,67.9-121.1,52.6,80.7,64,91.9,66.9,122.9Z"/>
  <g id="INSIDE_DROPLET">
    <g class="st12">
      <polygon class="st9" points="47.2 67 88.4 90.3 88.5 102 116.2 98.1 117.2 92.4 53.7 56.8 47.2 67"/>
      <path class="st8" d="M77.2,126.7l-49-25c-.7-1.1,10.5-21.7,12-22.5s1.8-.2,2.7.3l31.8,18.3c-.8,10-1,19.4,2.5,29Z"/>
      <path class="st8" d="M64.9,124.9c.8,1.4.4,12.9,1.2,15.8l2.7-10.8,2.3-2.2c-1.6,15.6-4.6,28.5,5.6,41.9s12.9,11.1,22.1,6.3c2.4-1.2,7.3-7.8,9.3-6.8,4.4,2.8,7,19.6,4,22.1l-9,2.5c.6-11.5-14.5-8.7-23.7-13.8-21.2-11.9-20.1-36-18.3-57.2.8.6,3.6,1.9,3.8,2.2Z"/>
      <path class="st8" d="M103.2,101.7c.9,8.5-2.1,34.2-15,30.6-10.8-3-9.5-23.7-9-32.6,7.8,7.5,14.6,3.4,24,2Z"/>
      <rect class="st8" x="-33.8" y="244.6" width="255" height="3.1"/>
      <path class="st8" d="M86.2,98.7l-43-23,2.9-6.5,1.4-.4c4.6,4.2,37.4,19.3,38.5,22.6s0,5.1.2,7.3Z"/>
      <path class="st11" d="M64,122.1l-.7,38.5s3.8,10.9,10.7,16.9c6.9,5.9,15.8,8.2,15.8,8.2l7.7,1s5.3.7,5.3,3.8,0,10.2,0,10.2l8.1-4.6.6-12s0-2.1-.8-5.2c-1.5-2.7-2.5-3.2-6.4-1.7-9.2,3.5-12.6,2.2-16.8-1.5-4.3-3.8-12.2-11.5-12.3-18.6-.1-7.1-.2-28.7-.2-28.7l-10.9-6.3Z"/>
      <path class="st11" d="M77.6,95.6v21s2,10.6,5.6,13.5c3.5,2.9,10.1,2.5,10.1,2.5,0,0,6.2-2.7,8.5-8.5s2.8-9.2,2.8-13.3v-13.1l-12.5,2.1-14.4-4.3Z"/>
      <path class="st7" d="M79.4,149.6c0-1.5,1.1-3.3,3.4-9.9,2.2,6.6,3.3,8.6,3.3,9.9,0,3.9-1.6,4.2-3.3,4.2s-3.3-.8-3.4-4.2Z"/>
      <path class="st7" d="M102.4,153.5c0-1.2.9-2.7,2.8-8,1.8,5.4,2.7,7,2.7,8,0,3.1-1.3,3.5-2.7,3.5s-2.7-.7-2.8-3.5Z"/>
      <path class="st7" d="M88.4,161.8c0-1.8,1.4-4.1,4.2-12.2,2.7,8.2,4.1,10.7,4.1,12.2,0,4.8-2,5.3-4.1,5.3s-4.1-1-4.2-5.3Z"/>
      <path class="st11" d="M97.4,176.2c1.9-.2,12.1-8.1,15.4-1.9,2.2,4.1,2.1,1,2.1,1,0,0-1.7-5.5-4.4-7.9s-3.9-1.5-6.1.3-7,8.5-7,8.5Z"/>
      <path class="st10" d="M65.4,125.5c0,2.3.8,15,.8,15l2.8-10.6,2.8-2.8s-6.3-3.9-6.3-1.6Z"/>
      <polyline class="st0" points="39.6 75 87.9 102 115.4 97.9 115.4 92.4"/>
      <line class="st3" x1="47" y1="67.4" x2="89.7" y2="91.3"/>
      <path class="st3" d="M117.9,91.5"/>
      <path class="st3" d="M75.2,67.6"/>
      <path class="st3" d="M75.2,67.6"/>
      <path class="st3" d="M32.5,43.6"/>
      <path class="st3" d="M85.7,97.5"/>
      <path class="st3" d="M43.2,73.2"/>
      <path class="st3" d="M85,94.2"/>
      <path class="st3" d="M42.6,69.9"/>
      <path class="st3" d="M117.9,91.6"/>
      <path class="st3" d="M75.1,67.2"/>
      <path class="st3" d="M75.1,67.2"/>
      <path class="st3" d="M32.2,42.9"/>
      <line class="st4" x1="88.3" y1="90.5" x2="88.3" y2="102.4"/>
      <path class="st4" d="M76.8,96.1c-1.5,24.3,2.2,35.6,10.5,38.5,3.3,1.1,6.2.2,6.8,0,7-2.1,12.1-16.3,10.8-35.4"/>
      <path class="st4" d="M72.5,126.5c0,7.4-.1,17.7,0,26.1s.4,4.1,1.1,6c4.1,11,9.9,15.3,14.3,16.5,7.7,1,11.1-.8,13.3-3.9,6-8.6,14.7-7.2,14.2,20.7"/>
      <path class="st4" d="M59.2,118.8v31.9c0,3.2,0,14.4,13.2,26.6,5.6,5.2,12,7.5,15.7,8.5s3.1.7,4.6.7c6.3,0,8.6.8,8.5,5s0,9.1,0,9.1"/>
      <line class="st4" x1="26" y1="101.8" x2="82.6" y2="131.8"/>
      <path class="st5" d="M121.1,175.9c7.8-6.4,11.1-8.5,16.2-17.8,4.8-8.9,5.6-17.9,5.4-21.6"/>
    </g>
  </g>
  <g>
    <path class="st8" d="M298,162.7c.9,1.1,2.4,2.1,4.3,2.1s2.3-.8,2.3-1.7-1.2-1.5-2.7-1.9c-2.2-.6-5-1.3-5-4.7s1.9-4.6,5.1-4.6,3.9.7,5.2,2.1l-1.6,2.4c-1.1-1.1-2.5-1.7-3.8-1.7s-2,.6-2,1.6,1.1,1.3,2.7,1.8c2.2.6,5,1.3,5,4.7s-1.7,4.9-5.4,4.9-4.4-1-5.7-2.4l1.6-2.5Z"/>
    <path class="st8" d="M320.3,151.8c4.1,0,7,3.3,7,7.9s-3,7.9-7,7.9-7-3.3-7-7.9,3-7.9,7-7.9ZM320.3,154.7c-2.5,0-4.1,2.1-4.1,5s1.6,5,4.1,5,4.1-2.2,4.1-5-1.6-5-4.1-5Z"/>
    <path class="st8" d="M334.1,167.3v-15.2h2.9v12.4h5.7v2.9h-8.5Z"/>
    <path class="st8" d="M348.9,152.1h2.9v9c0,2.1,1,3.6,3.1,3.6s3.1-1.5,3.1-3.6v-9h2.9v9.1c0,3.8-1.9,6.4-6,6.4s-6-2.6-6-6.3v-9.2Z"/>
    <path class="st8" d="M371.3,167.3v-12.4h-3.9v-2.9h10.7v2.9h-3.9v12.4h-2.9Z"/>
    <path class="st8" d="M383.4,167.3v-15.2h2.9v15.2h-2.9Z"/>
    <path class="st8" d="M398.8,151.8c4.1,0,7,3.3,7,7.9s-3,7.9-7,7.9-7-3.3-7-7.9,3-7.9,7-7.9ZM398.8,154.7c-2.5,0-4.1,2.1-4.1,5s1.6,5,4.1,5,4.1-2.2,4.1-5-1.6-5-4.1-5Z"/>
    <path class="st8" d="M419.8,167.3l-6.4-10.2v10.2h-2.9v-15.2h2.9l6.2,9.9v-9.9h2.9v15.2h-2.8Z"/>
    <path class="st8" d="M428.6,162.7c.9,1.1,2.4,2.1,4.3,2.1s2.3-.8,2.3-1.7-1.2-1.5-2.7-1.9c-2.2-.6-5-1.3-5-4.7s1.9-4.6,5.1-4.6,3.9.7,5.2,2.1l-1.6,2.4c-1.1-1.1-2.5-1.7-3.8-1.7s-2,.6-2,1.6,1.1,1.3,2.7,1.8c2.2.6,5,1.3,5,4.7s-1.7,4.9-5.4,4.9-4.4-1-5.7-2.4l1.6-2.5Z"/>
  </g>
  <g>
    <path class="st8" d="M180.4,151.8c2.8,0,4.5,1.5,5.5,3.3l-2.4,1.5c-.6-1.1-1.8-1.9-3.2-1.9-2.4,0-4.2,2.1-4.2,5s1.8,5,4.2,5,2.3-.6,2.9-1.2v-1.9h-3.6v-2.8h6.4v5.8c-1.4,1.7-3.3,2.9-5.7,2.9-3.9,0-7.1-3.1-7.1-7.9s3.2-7.9,7.1-7.9Z"/>
    <path class="st8" d="M192.9,152.1h2.9v9c0,2.1,1,3.6,3.1,3.6s3.1-1.5,3.1-3.6v-9h2.9v9.1c0,3.8-1.9,6.4-6,6.4s-6-2.6-6-6.3v-9.2Z"/>
    <path class="st8" d="M215.2,167.3v-12.4h-3.9v-2.9h10.7v2.9h-3.9v12.4h-2.9Z"/>
    <path class="st8" d="M233.7,167.3v-12.4h-3.9v-2.9h10.7v2.9h-3.9v12.4h-2.9Z"/>
    <path class="st8" d="M248.9,167.3v-15.2h9.5v2.8h-6.6v3.3h6.5v2.8h-6.5v3.5h6.6v2.8h-9.5Z"/>
    <path class="st8" d="M274.2,167.3l-2.6-5.5h-2.1v5.5h-2.9v-15.2h6.3c2.8,0,4.5,2.1,4.5,4.9s-1.5,4.1-2.9,4.5l3,5.8h-3.3ZM272.4,154.8h-3v4.2h3c1.1,0,2-.8,2-2.1s-.9-2.1-2-2.1Z"/>
  </g>
  <g>
    <path class="st8" d="M342.6,135.8l-7-12.7h-5.5v12.7h-7.6v-35.5h16.6c7.4,0,11.9,4.8,11.9,11.5s-3.9,9.6-7.8,10.6l8,13.5h-8.7ZM338,106.7h-7.9v9.8h7.9c3,0,5.3-1.9,5.3-4.9s-2.3-4.9-5.3-4.9Z"/>
    <path class="st8" d="M357.7,135.8v-35.5h25.2v6.5h-17.6v7.7h17.2v6.5h-17.2v8.3h17.6v6.6h-25.2Z"/>
    <path class="st8" d="M414.5,135.8l-2.2-6.1h-15.9l-2.2,6.1h-8.3l13.7-35.5h9.5l13.7,35.5h-8.3ZM404.3,106.8l-5.9,16.3h11.8l-5.9-16.3Z"/>
    <path class="st8" d="M427,135.8v-35.5h14c11.1,0,18.9,7.1,18.9,17.8s-7.7,17.7-18.9,17.7h-14ZM434.6,129.1h6.4c7,0,11.1-5.1,11.1-11.1s-3.8-11.1-11.1-11.1h-6.4v22.2Z"/>
    <path class="st8" d="M473.9,135.8v-14.5l-13.7-21h8.6l8.8,14.3,8.7-14.3h8.6l-13.6,21v14.5h-7.6Z"/>
  </g>
  <g>
    <path class="st8" d="M194.1,135.8l-7-12.7h-5.5v12.7h-7.6v-35.5h16.6c7.4,0,11.9,4.8,11.9,11.5s-3.9,9.6-7.8,10.6l8,13.5h-8.7ZM189.5,106.7h-7.9v9.8h7.9c3,0,5.3-1.9,5.3-4.9s-2.3-4.9-5.3-4.9Z"/>
    <path class="st8" d="M235,135.8l-2.2-6.1h-15.9l-2.2,6.1h-8.3l13.7-35.5h9.5l13.7,35.5h-8.3ZM224.8,106.8l-5.9,16.3h11.8l-5.9-16.3Z"/>
    <path class="st8" d="M248.4,135.8v-35.5h7.6v35.5h-7.6Z"/>
    <path class="st8" d="M289.3,135.8l-16.9-23.9v23.9h-7.6v-35.5h7.8l16.5,23v-23h7.6v35.5h-7.3Z"/>
  </g>
  <path class="st2" d="M154.6,130.4c1.6,36.9-31.5,66.9-66.9,66.1s-70-29.6-67.9-67.9c1.9-33.4,37-76.9,67.9-121.1,52.6,80.7,64,91.9,66.9,122.9Z"/>
</svg>